<svg width="335" height="372" viewBox="0 0 335 372" fill="none" xmlns="http://www.w3.org/2000/svg">
<path d="M323.724 151.934L180.446 5.49692C178.719 3.75513 176.663 2.37264 174.399 1.42919C172.134 0.485736 169.705 0 167.252 0C164.799 0 162.37 0.485736 160.105 1.42919C157.841 2.37264 155.786 3.75513 154.058 5.49692L10.7805 152.119C7.31351 155.614 4.5754 159.763 2.72512 164.325C0.874844 168.887 -0.0507284 173.771 0.00214385 178.694V334.422C-0.012255 343.935 3.62168 353.091 10.1556 360.006C16.6895 366.92 25.626 371.065 35.1246 371.589H299.38C308.878 371.065 317.815 366.92 324.349 360.006C330.883 353.091 334.517 343.935 334.502 334.422V178.694C334.517 168.713 330.652 159.118 323.724 151.934ZM130.085 334.422V222.922H204.419V334.422H130.085ZM297.335 334.422H241.585V204.339C241.585 199.41 239.628 194.683 236.143 191.198C232.657 187.713 227.931 185.755 223.002 185.755H111.502C106.574 185.755 101.847 187.713 98.3618 191.198C94.8767 194.683 92.9188 199.41 92.9188 204.339V334.422H37.1688V177.95L167.252 45.0794L297.335 178.694V334.422Z" fill="#EFEFEF"/>
</svg>
