<svg width="354" height="354" viewBox="0 0 354 354" fill="none" xmlns="http://www.w3.org/2000/svg">
<path d="M299.478 0H53.7725C39.5111 0 25.8339 5.6653 15.7496 15.7496C5.6653 25.8339 0 39.5111 0 53.7725V299.478C0 313.739 5.6653 327.416 15.7496 337.5C25.8339 347.585 39.5111 353.25 53.7725 353.25H299.478C313.739 353.25 327.416 347.585 337.5 337.5C347.585 327.416 353.25 313.739 353.25 299.478V53.7725C353.25 39.5111 347.585 25.8339 337.5 15.7496C327.416 5.6653 313.739 0 299.478 0ZM78.5 157H39.25V117.75H78.5V157ZM39.25 196.25H78.5V235.5H39.25V196.25ZM117.75 39.25H235.5V314H117.75V39.25ZM314 157H274.75V117.75H314V157ZM274.75 196.25H314V235.5H274.75V196.25ZM314 53.7725V78.5H274.75V39.25H299.478C301.385 39.25 303.273 39.6256 305.035 40.3555C306.797 41.0853 308.398 42.155 309.746 43.5035C311.095 44.8521 312.165 46.453 312.895 48.215C313.624 49.9769 314 51.8654 314 53.7725ZM53.7725 39.25H78.5V78.5H39.25V53.7725C39.25 51.8654 39.6256 49.9769 40.3555 48.215C41.0853 46.453 42.155 44.8521 43.5035 43.5035C44.8521 42.155 46.453 41.0853 48.215 40.3555C49.9769 39.6256 51.8654 39.25 53.7725 39.25ZM39.25 299.478V274.75H78.5V314H53.7725C51.8654 314 49.9769 313.624 48.215 312.895C46.453 312.165 44.8521 311.095 43.5035 309.746C42.155 308.398 41.0853 306.797 40.3555 305.035C39.6256 303.273 39.25 301.385 39.25 299.478ZM314 299.478C314 303.329 312.47 307.023 309.746 309.746C307.023 312.47 303.329 314 299.478 314H274.75V274.75H314V299.478Z" fill="#EFEFEF"/>
</svg>
