<svg width="168" height="168" viewBox="0 0 168 168" fill="none" xmlns="http://www.w3.org/2000/svg">
<g clip-path="url(#clip0_169_506)">
<path d="M84 77C89.5379 77 94.9514 75.3578 99.556 72.2812C104.161 69.2045 107.749 64.8315 109.869 59.7152C111.988 54.5988 112.542 48.969 111.462 43.5375C110.382 38.106 107.715 33.1169 103.799 29.201C99.8831 25.2852 94.894 22.6184 89.4625 21.538C84.0311 20.4576 78.4012 21.0121 73.2849 23.1314C68.1685 25.2506 63.7955 28.8395 60.7189 33.444C57.6422 38.0486 56 43.4621 56 49C56 56.4261 58.95 63.548 64.201 68.799C69.452 74.05 76.5739 77 84 77Z" fill="#F6F5F5"/>
<path d="M126 147C127.857 147 129.637 146.263 130.95 144.95C132.263 143.637 133 141.857 133 140C133 127.004 127.838 114.541 118.648 105.352C109.459 96.1625 96.9956 91 84 91C71.0044 91 58.541 96.1625 49.3518 105.352C40.1625 114.541 35 127.004 35 140C35 141.857 35.7375 143.637 37.0503 144.95C38.363 146.263 40.1435 147 42 147H126Z" fill="#F6F5F5"/>
</g>
<defs>
<clipPath id="clip0_169_506">
<rect width="168" height="168" fill="white"/>
</clipPath>
</defs>
</svg>
