<svg width="390" height="390" viewBox="0 0 390 390" fill="none" xmlns="http://www.w3.org/2000/svg">
<path d="M196.575 106.773C191.797 102.37 185.83 99.4675 179.416 98.4275C173.003 97.3874 166.425 98.2551 160.5 100.923C154.749 103.249 149.821 107.238 146.348 112.378C142.875 117.519 141.013 123.579 141 129.783V261.213C141.013 267.417 142.875 273.476 146.348 278.617C149.821 283.758 154.749 287.746 160.5 290.073C164.727 291.99 169.313 292.987 173.955 292.998C182.319 292.961 190.374 289.836 196.575 284.223L267.945 218.508C271.137 215.585 273.686 212.03 275.43 208.068C277.174 204.107 278.074 199.826 278.074 195.498C278.074 191.17 277.174 186.889 275.43 182.927C273.686 178.966 271.137 175.411 267.945 172.488L196.575 106.773ZM180.195 246.198V144.798L234.99 195.498L180.195 246.198Z" fill="#EFEFEF"/>
<path d="M195 0C156.433 0 118.731 11.4366 86.6639 32.8634C54.5963 54.2903 29.6027 84.7451 14.8436 120.377C0.0844904 156.008 -3.77716 195.216 3.74696 233.043C11.2711 270.869 29.843 305.615 57.1143 332.886C84.3855 360.157 119.131 378.729 156.957 386.253C194.784 393.777 233.992 389.916 269.623 375.157C305.255 360.397 335.71 335.404 357.137 303.336C378.564 271.269 390 233.567 390 195C390 169.392 384.956 144.035 375.157 120.377C365.357 96.7182 350.993 75.2216 332.886 57.1142C314.778 39.0068 293.282 24.6432 269.623 14.8435C245.965 5.04383 220.608 0 195 0ZM195 351C164.146 351 133.985 341.851 108.331 324.709C82.6771 307.568 62.6822 283.204 50.8749 254.699C39.0676 226.193 35.9783 194.827 41.9976 164.566C48.0169 134.305 62.8744 106.508 84.6914 84.6913C106.508 62.8744 134.305 48.0168 164.566 41.9975C194.827 35.9782 226.193 39.0675 254.699 50.8748C283.204 62.6821 307.568 82.677 324.709 108.331C341.851 133.985 351 164.146 351 195C351 236.374 334.564 276.053 305.309 305.309C276.053 334.564 236.374 351 195 351Z" fill="#EFEFEF"/>
</svg>
