<svg width="403" height="269" viewBox="0 0 403 269" fill="none" xmlns="http://www.w3.org/2000/svg">
<path d="M402.789 22.375C403.001 20.8159 403.001 19.2353 402.789 17.6762C402.595 16.3626 402.218 15.0824 401.671 13.8725C401.079 12.779 400.406 11.7318 399.657 10.74C398.806 9.32485 397.75 8.04312 396.524 6.93625L393.839 5.36999C392.548 4.4069 391.113 3.65193 389.588 3.1325H385.113C383.75 1.81226 382.157 0.75085 380.414 0H268.539C262.605 0 256.914 2.35736 252.718 6.55349C248.522 10.7496 246.164 16.4408 246.164 22.375C246.164 28.3092 248.522 34.0004 252.718 38.1965C256.914 42.3926 262.605 44.75 268.539 44.75H331.861L242.361 150.136L145.701 92.6325C141.122 89.9095 135.723 88.9092 130.473 89.8115C125.223 90.7138 120.467 93.4596 117.061 97.555L5.18564 231.805C3.30162 234.066 1.88215 236.676 1.00853 239.487C0.134907 242.297 -0.175698 245.252 0.0944999 248.183C0.364697 251.113 1.21039 253.962 2.58314 256.565C3.95589 259.168 5.82873 261.475 8.09439 263.354C12.1199 266.689 17.1864 268.51 22.4144 268.5C25.7015 268.505 28.9494 267.786 31.9272 266.394C34.9049 265.002 37.5394 262.971 39.6431 260.445L139.212 140.962L234.753 198.242C239.285 200.93 244.62 201.933 249.818 201.073C255.016 200.214 259.744 197.547 263.169 193.544L358.039 82.7875V134.25C358.039 140.184 360.397 145.875 364.593 150.071C368.789 154.268 374.48 156.625 380.414 156.625C386.349 156.625 392.04 154.268 396.236 150.071C400.432 145.875 402.789 140.184 402.789 134.25V22.375Z" fill="#EFEFEF"/>
</svg>
