<svg width="420" height="378" viewBox="0 0 420 378" fill="none" xmlns="http://www.w3.org/2000/svg">
<path d="M356.292 0H62.875C46.1995 0 30.207 6.62431 18.4157 18.4157C6.62431 30.207 0 46.1995 0 62.875V230.542C0 247.217 6.62431 263.21 18.4157 275.001C30.207 286.792 46.1995 293.417 62.875 293.417H188.625V335.333H104.792C99.2332 335.333 93.9023 337.541 89.9719 341.472C86.0414 345.402 83.8333 350.733 83.8333 356.292C83.8333 361.85 86.0414 367.181 89.9719 371.111C93.9023 375.042 99.2332 377.25 104.792 377.25H314.375C319.933 377.25 325.264 375.042 329.195 371.111C333.125 367.181 335.333 361.85 335.333 356.292C335.333 350.733 333.125 345.402 329.195 341.472C325.264 337.541 319.933 335.333 314.375 335.333H230.542V293.417H356.292C372.967 293.417 388.96 286.792 400.751 275.001C412.542 263.21 419.167 247.217 419.167 230.542V62.875C419.167 46.1995 412.542 30.207 400.751 18.4157C388.96 6.62431 372.967 0 356.292 0ZM377.25 230.542C377.25 236.1 375.042 241.431 371.111 245.361C367.181 249.292 361.85 251.5 356.292 251.5H62.875C57.3165 251.5 51.9857 249.292 48.0552 245.361C44.1248 241.431 41.9167 236.1 41.9167 230.542V62.875C41.9167 57.3165 44.1248 51.9857 48.0552 48.0552C51.9857 44.1248 57.3165 41.9167 62.875 41.9167H356.292C361.85 41.9167 367.181 44.1248 371.111 48.0552C375.042 51.9857 377.25 57.3165 377.25 62.875V230.542Z" fill="#EFEFEF"/>
</svg>
