<svg width="180" height="181" viewBox="0 0 180 181" fill="none" xmlns="http://www.w3.org/2000/svg">
<path d="M90 0C102.187 0 113.804 2.43164 124.424 6.82617L124.585 6.89941C135.527 11.4551 145.386 18.1201 153.633 26.3818C161.924 34.6582 168.604 44.5752 173.174 55.6055C177.583 66.2109 180 77.8418 180 90.0146C180 102.202 177.568 113.818 173.174 124.438L173.101 124.6C168.53 135.542 161.88 145.4 153.618 153.647C145.342 161.938 135.425 168.618 124.395 173.188C113.789 177.598 102.158 180.015 89.9854 180.015C77.8125 180.015 66.1816 177.583 55.5615 173.188L55.4004 173.115C44.458 168.56 34.5996 161.895 26.3525 153.647L26.3672 153.618C18.0762 145.327 11.3965 135.425 6.82617 124.424C2.43164 113.804 0 102.187 0 90C0 77.8125 2.43164 66.1963 6.82617 55.5762L6.89941 55.415C11.4551 44.4727 18.1201 34.6143 26.3672 26.3672H26.3818C34.6729 18.0762 44.5752 11.3965 55.5908 6.82617C66.1963 2.43164 77.8125 0 90 0ZM24.8877 138.384L25.2393 138.179C33.8818 133.359 56.3818 131.763 65.7275 125.244C66.416 124.219 67.1484 122.725 67.8662 121.099C68.9355 118.652 69.917 115.972 70.5322 114.155C67.9248 111.079 65.6836 107.607 63.5449 104.194L56.4697 92.9297C53.8916 89.0625 52.5439 85.5469 52.4561 82.6465C52.4121 81.2842 52.6465 80.0537 53.1592 78.9551C53.6865 77.8125 54.4922 76.8604 55.5908 76.1279C56.1035 75.7764 56.6748 75.4834 57.3047 75.2637C56.8359 69.1553 56.6748 61.4648 56.9678 55.0195C57.1143 53.4961 57.4219 51.958 57.832 50.4346C59.6484 43.9746 64.1748 38.7744 69.7852 35.2002C72.876 33.2227 76.2744 31.7432 79.8047 30.7471C82.0605 30.1025 77.8857 22.9248 80.2148 22.6758C91.4502 21.5186 109.629 31.7871 117.48 40.2686C121.406 44.5166 123.882 50.1563 124.409 57.6123L123.97 75.9814C125.933 76.582 127.192 77.8271 127.69 79.834C128.262 82.0752 127.646 85.21 125.742 89.502C125.713 89.5752 125.669 89.6631 125.625 89.7363L117.554 103.022C114.595 107.9 111.577 112.808 107.666 116.66C108.032 117.187 108.398 117.7 108.75 118.213C110.347 120.557 111.958 122.9 114.023 124.995C114.097 125.068 114.155 125.142 114.199 125.215C123.486 131.777 146.089 133.374 154.761 138.208L155.112 138.413C165.176 124.907 171.123 108.164 171.123 90.0293C171.123 67.6318 162.041 47.3437 147.363 32.6807C132.715 17.9883 112.427 8.90625 90.0293 8.90625C67.6318 8.90625 47.3437 17.9883 32.6807 32.666C17.9736 47.3145 8.8916 67.6025 8.8916 90C8.8916 108.135 14.8389 124.878 24.8877 138.384Z" fill="#F0F0F0"/>
</svg>
