<svg width="144" height="48" viewBox="0 0 144 48" fill="none" xmlns="http://www.w3.org/2000/svg">
<path d="M1.88 31V17H4.02L10.14 27.22H9.02L15.04 17H17.18L17.2 31H14.74L14.72 20.86H15.24L10.12 29.4H8.96L3.76 20.86H4.36V31H1.88ZM25.5416 31.14C24.4482 31.14 23.4749 30.9067 22.6216 30.44C21.7682 29.96 21.0949 29.3067 20.6016 28.48C20.1082 27.6533 19.8616 26.7133 19.8616 25.66C19.8616 24.5933 20.1082 23.6533 20.6016 22.84C21.0949 22.0133 21.7682 21.3667 22.6216 20.9C23.4749 20.4333 24.4482 20.2 25.5416 20.2C26.6482 20.2 27.6282 20.4333 28.4816 20.9C29.3482 21.3667 30.0216 22.0067 30.5016 22.82C30.9949 23.6333 31.2416 24.58 31.2416 25.66C31.2416 26.7133 30.9949 27.6533 30.5016 28.48C30.0216 29.3067 29.3482 29.96 28.4816 30.44C27.6282 30.9067 26.6482 31.14 25.5416 31.14ZM25.5416 29C26.1549 29 26.7016 28.8667 27.1816 28.6C27.6616 28.3333 28.0349 27.9467 28.3016 27.44C28.5816 26.9333 28.7216 26.34 28.7216 25.66C28.7216 24.9667 28.5816 24.3733 28.3016 23.88C28.0349 23.3733 27.6616 22.9867 27.1816 22.72C26.7016 22.4533 26.1616 22.32 25.5616 22.32C24.9482 22.32 24.4016 22.4533 23.9216 22.72C23.4549 22.9867 23.0816 23.3733 22.8016 23.88C22.5216 24.3733 22.3816 24.9667 22.3816 25.66C22.3816 26.34 22.5216 26.9333 22.8016 27.44C23.0816 27.9467 23.4549 28.3333 23.9216 28.6C24.4016 28.8667 24.9416 29 25.5416 29ZM36.1792 31L31.5992 20.32H34.1992L38.1392 29.74H36.8592L40.9392 20.32H43.3392L38.7592 31H36.1792ZM44.9017 31V20.32H47.4017V31H44.9017ZM46.1617 18.56C45.6951 18.56 45.3084 18.4133 45.0017 18.12C44.7084 17.8267 44.5617 17.4733 44.5617 17.06C44.5617 16.6333 44.7084 16.28 45.0017 16C45.3084 15.7067 45.6951 15.56 46.1617 15.56C46.6284 15.56 47.0084 15.7 47.3017 15.98C47.6084 16.2467 47.7617 16.5867 47.7617 17C47.7617 17.44 47.6151 17.8133 47.3217 18.12C47.0284 18.4133 46.6417 18.56 46.1617 18.56ZM55.703 31.14C54.5163 31.14 53.4763 30.9067 52.583 30.44C51.703 29.96 51.0163 29.3067 50.523 28.48C50.043 27.6533 49.803 26.7133 49.803 25.66C49.803 24.5933 50.0363 23.6533 50.503 22.84C50.983 22.0133 51.6363 21.3667 52.463 20.9C53.303 20.4333 54.2563 20.2 55.323 20.2C56.363 20.2 57.2896 20.4267 58.103 20.88C58.9163 21.3333 59.5563 21.9733 60.023 22.8C60.4896 23.6267 60.723 24.6 60.723 25.72C60.723 25.8267 60.7163 25.9467 60.703 26.08C60.703 26.2133 60.6963 26.34 60.683 26.46H51.783V24.8H59.363L58.383 25.32C58.3963 24.7067 58.2696 24.1667 58.003 23.7C57.7363 23.2333 57.3696 22.8667 56.903 22.6C56.4496 22.3333 55.923 22.2 55.323 22.2C54.7096 22.2 54.1696 22.3333 53.703 22.6C53.2496 22.8667 52.8896 23.24 52.623 23.72C52.3696 24.1867 52.243 24.74 52.243 25.38V25.78C52.243 26.42 52.3896 26.9867 52.683 27.48C52.9763 27.9733 53.3896 28.3533 53.923 28.62C54.4563 28.8867 55.0696 29.02 55.763 29.02C56.363 29.02 56.903 28.9267 57.383 28.74C57.863 28.5533 58.2896 28.26 58.663 27.86L60.003 29.4C59.523 29.96 58.9163 30.3933 58.183 30.7C57.463 30.9933 56.6363 31.14 55.703 31.14Z" fill="#FF3636"/>
<path d="M98.88 31V17H105C106.52 17 107.853 17.2933 109 17.88C110.147 18.4667 111.04 19.28 111.68 20.32C112.32 21.36 112.64 22.5867 112.64 24C112.64 25.4 112.32 26.6267 111.68 27.68C111.04 28.72 110.147 29.5333 109 30.12C107.853 30.7067 106.52 31 105 31H98.88ZM101.48 28.8H104.88C105.933 28.8 106.84 28.6 107.6 28.2C108.373 27.8 108.967 27.24 109.38 26.52C109.807 25.8 110.02 24.96 110.02 24C110.02 23.0267 109.807 22.1867 109.38 21.48C108.967 20.76 108.373 20.2 107.6 19.8C106.84 19.4 105.933 19.2 104.88 19.2H101.48V28.8ZM115.403 31V17H121.963C123.643 17 124.923 17.3333 125.803 18C126.683 18.6533 127.123 19.5333 127.123 20.64C127.123 21.3867 126.95 22.0267 126.603 22.56C126.257 23.08 125.79 23.4867 125.203 23.78C124.63 24.06 124.003 24.2 123.323 24.2L123.683 23.48C124.47 23.48 125.177 23.6267 125.803 23.92C126.43 24.2 126.923 24.6133 127.283 25.16C127.657 25.7067 127.843 26.3867 127.843 27.2C127.843 28.4 127.383 29.3333 126.463 30C125.543 30.6667 124.177 31 122.363 31H115.403ZM118.003 28.96H122.203C123.177 28.96 123.923 28.8 124.443 28.48C124.963 28.16 125.223 27.6467 125.223 26.94C125.223 26.2467 124.963 25.74 124.443 25.42C123.923 25.0867 123.177 24.92 122.203 24.92H117.803V22.9H121.683C122.59 22.9 123.283 22.74 123.763 22.42C124.257 22.1 124.503 21.62 124.503 20.98C124.503 20.3267 124.257 19.84 123.763 19.52C123.283 19.2 122.59 19.04 121.683 19.04H118.003V28.96Z" fill="#FF3636"/>
<path fill-rule="evenodd" clip-rule="evenodd" d="M82.2969 25.425C82.2969 25.5769 82.2165 25.7171 82.0859 25.793L77.6562 28.3695C77.5257 28.4454 77.3649 28.4454 77.2344 28.3695C77.1038 28.2936 77.0234 28.1532 77.0234 28.0014V22.8486C77.0234 22.6968 77.1038 22.5564 77.2344 22.4805C77.3649 22.4046 77.5257 22.4046 77.6562 22.4805L82.0859 25.0569C82.2165 25.1329 82.2969 25.2731 82.2969 25.425ZM77.8672 23.5847V27.2653L81.0312 25.425L77.8672 23.5847Z" fill="#B8C6DB"/>
<path fill-rule="evenodd" clip-rule="evenodd" d="M87.3671 12.6838C87.1862 12.0037 86.4922 11.6 85.817 11.7823L69.9245 16.0722C69.2494 16.2545 68.8487 16.9536 69.0296 17.6338L69.2194 18.3472C68.7067 18.7349 68.375 19.3523 68.375 20.0478C68.375 20.9192 68.8956 21.6681 69.6406 21.996V30.6728C69.6406 31.377 70.2072 31.9478 70.9062 31.9478H87.3594C88.0584 31.9478 88.625 31.377 88.625 30.6728V20.8978C88.625 20.1936 88.0584 19.6228 87.3594 19.6228H73.071L86.9089 15.8875C87.5841 15.7052 87.9848 15.0061 87.8039 14.3259L87.3671 12.6838ZM70.4844 22.1728V30.6728C70.4844 30.9075 70.6732 31.0978 70.9062 31.0978H87.3594C87.5924 31.0978 87.7812 30.9075 87.7812 30.6728V20.8978C87.7812 20.6631 87.5924 20.4728 87.3594 20.4728H72.5516C72.3561 21.4427 71.5049 22.1728 70.4844 22.1728ZM72.2926 18.9529L74.6212 18.3243L72.7436 16.1912L70.143 16.8932C69.9179 16.954 69.7843 17.187 69.8446 17.4137L69.9953 17.9802C70.1522 17.9427 70.316 17.9228 70.4844 17.9228C71.2518 17.9228 71.9235 18.3357 72.2926 18.9529ZM86.0354 12.6033C86.2605 12.5426 86.4918 12.6771 86.5521 12.9039L86.9889 14.5459C87.0492 14.7726 86.9156 15.0057 86.6906 15.0664L85.3124 15.4384L83.4348 13.3053L86.0354 12.6033ZM82.5236 13.5513L80.1748 14.1853L82.0524 16.3184L84.4012 15.6844L82.5236 13.5513ZM76.9148 15.0653L79.2636 14.4313L81.1412 16.5644L78.7924 17.1984L76.9148 15.0653ZM76.0036 15.3113L73.6548 15.9453L75.5324 18.0784L77.8812 17.4444L76.0036 15.3113ZM69.2188 20.0478C69.2188 19.3436 69.7854 18.7728 70.4844 18.7728C71.1834 18.7728 71.75 19.3436 71.75 20.0478C71.75 20.752 71.1834 21.3228 70.4844 21.3228C69.7854 21.3228 69.2188 20.752 69.2188 20.0478Z" fill="url(#paint0_linear_111_506)"/>
<defs>
<linearGradient id="paint0_linear_111_506" x1="70.3115" y1="31.3101" x2="89.1558" y2="14.2795" gradientUnits="userSpaceOnUse">
<stop stop-color="#F5F7FA"/>
<stop offset="1" stop-color="#B8C6DB" stop-opacity="0"/>
</linearGradient>
</defs>
</svg>
